# xmcd
#
# Track frame offsets: 
#        150
#        19723
#        39480
#
# Disc length: 746 seconds
#
# Revision: 4
# Processed by: cddbd v1.5.2PL0 Copyright (c) Steve Scherf et al.
# Submitted via: ExactAudioCopyFreeDBPlugin 1.0
#
DISCID=1902e803
DTITLE=Presuntos Implicados - Pequñas Cosas
DYEAR=1994
DGENRE=Jazz
TTITLE0=Aquellas Pequeñas Cosas
TTITLE1=Me Das El Mar
TTITLE2=Asoma El Llanto
EXTD=Never released tracks YEAR: 1994
EXTT0=
EXTT1=
EXTT2=
PLAYORDER=
